<?xml version="1.0" encoding="utf-8"?>
<!-- Generator: Adobe Illustrator 17.0.0, SVG Export Plug-In . SVG Version: 6.00 Build 0)  -->
<!DOCTYPE svg PUBLIC "-//W3C//DTD SVG 1.1//EN" "http://www.w3.org/Graphics/SVG/1.1/DTD/svg11.dtd">
<svg version="1.1" id="Слой_1" xmlns="http://www.w3.org/2000/svg" xmlns:xlink="http://www.w3.org/1999/xlink" x="0px" y="0px"
	 width="370px" height="370px" viewBox="0 0 370 370" enable-background="new 0 0 370 370" xml:space="preserve">
<g opacity="0.6">
	<g>
		<path fill="#FFFFFF" d="M80.6022797,125.8689957c16.5010071-29.0833435,44.7989426-50.5959015,78.3885956-58.0324631
			 M80.6022797,125.8722382c0,0,2.7616425,0,6.1369934,0c3.3753433,0,9.0855026-3.3994522,12.6892319-7.5543442
			l18.8261108-21.7053986c3.6037369-4.154892,10.4402542-7.5543518,15.1922836-7.5543518s6.1889038,3.7189789,3.1930542,8.264389
			c-2.9958344,4.5454178-2.0504608,8.264389,2.1008301,8.264389s10.2899323-3.5680237,13.6414032-7.9289398l0.5155945-0.6708908
			c3.3514709-4.3609161,6.0935822-12.4289398,6.0935822-17.9289398V67.8365326"/>
		<path fill="none" stroke="#FFFFFF" stroke-width="4" stroke-linecap="round" stroke-linejoin="round" stroke-miterlimit="10" d="
			M80.6022797,125.8689957c16.5010071-29.0833435,44.7989426-50.5959015,78.3885956-58.0324631 M80.6022797,125.8722382
			c0,0,2.7616425,0,6.1369934,0c3.3753433,0,9.0855026-3.3994522,12.6892319-7.5543442l18.8261108-21.7053986
			c3.6037369-4.154892,10.4402542-7.5543518,15.1922836-7.5543518s6.1889038,3.7189789,3.1930542,8.264389
			c-2.9958344,4.5454178-2.0504608,8.264389,2.1008301,8.264389s10.2899323-3.5680237,13.6414032-7.9289398l0.5155945-0.6708908
			c3.3514709-4.3609161,6.0935822-12.4289398,6.0935822-17.9289398V67.8365326"/>
	</g>
	<g>
		<path fill="#FFFFFF" d="M206.322876,66.880455c54.2802124,9.7122955,95.9085693,55.9231873,98.5863647,112.3339767
			 M206.3237762,66.880455c0,0,0,2.4543152,0,5.4540405c0,2.9997177,2.5356598,7.9896927,5.6348114,11.0888443
			c3.0991364,3.099144,1.1348114,5.6348038-4.3651886,5.6348038h-16.7201843c-5.5,0-13.0111084,3.0111084-16.69133,6.6913376
			c-3.6802368,3.6802368-6.6913452,8.4134827-6.6913452,10.5183182s1.9176025,5.7445679,4.261322,8.088295
			c2.3437347,2.3437347,5.6194,4.2613297,7.2792816,4.2613297c1.6598663,0,3.0179443-2.5092545,3.0179443-5.5761185
			s3.5177917-5.5761108,7.8173218-5.5761108s5.4626465,3.8347702,2.5846863,8.5217133l-2.6826324,4.3688507
			c-2.8779449,4.6869431-9.7326202,8.5217133-15.2326202,8.5217133h-2.4678345c-5.5,0-13.2588043,3.103241-17.241806,6.8961029
			l-1.2958069,1.2339478c-3.9829865,3.7928619-11.4835358,6.8961029-16.6678772,6.8961029s-9.4260864,4.5-9.4260864,10v1.1305389
			c0,5.5,4.241745,10,9.4260864,10s12.6080627-3.1819763,16.4971466-7.0710602l2.9980469-2.9980469
			c3.8890839-3.8890991,10.2530518-3.8890991,14.1421356,0l2.164093,2.1640778
			c3.8890839,3.8890839,11.5638275,7.0710602,17.0549927,7.0710602s9.9839325-4.5,9.9839325-10v-0.2965546
			c0-5.5000153,3.1819916-13.1819916,7.0710754-17.0710754l4.5701294-4.5701294
			c3.8890839-3.8890839,10.2530518-3.8890839,14.1421356,0l5.5618439,5.5618439
			c3.8890839,3.8890839,2.5710602,7.0710754-2.9289398,7.0710754h-9.0601044c-5.5,0-10,2.3666229-10,5.2591553
			s1.9202423,6.8109741,4.2671967,8.7076569s8.7671967,3.4485168,14.2671967,3.4485168h10.0526733c5.5,0,10,4.5,10,10v1.7532043
			c0,5.5,2.904068,12.904068,6.4534912,16.4534912s8.9806671,4.3186188,12.0694122,1.7093353
			s5.6159058-5.5133667,5.6159058-6.4534912c0-0.9401398-2.1348572-1.7093353-4.7441406-1.7093353
			s-4.7441711-1.0909882-4.7441711-2.4243927c0-1.3334198,3.1819763-5.606369,7.0710754-9.4954529l1.441864-1.4418793
			c3.8890991-3.8890839,10.2530518-3.8890839,14.1421509,0l1.441864,1.4418793
			c3.8890991,3.8890839,7.3396912,7.0710602,7.6679993,7.0710602c0.3283386,0,2.9033813,0,5.7223206,0
			c2.8189697,0,5.1253967,0,5.1253967,0"/>
		<path fill="none" stroke="#FFFFFF" stroke-width="4" stroke-linecap="round" stroke-linejoin="round" stroke-miterlimit="10" d="
			M206.322876,66.880455c54.2802124,9.7122955,95.9085693,55.9231873,98.5863647,112.3339767 M206.3237762,66.880455
			c0,0,0,2.4543152,0,5.4540405c0,2.9997177,2.5356598,7.9896927,5.6348114,11.0888443
			c3.0991364,3.099144,1.1348114,5.6348038-4.3651886,5.6348038h-16.7201843c-5.5,0-13.0111084,3.0111084-16.69133,6.6913376
			c-3.6802368,3.6802368-6.6913452,8.4134827-6.6913452,10.5183182s1.9176025,5.7445679,4.261322,8.088295
			c2.3437347,2.3437347,5.6194,4.2613297,7.2792816,4.2613297c1.6598663,0,3.0179443-2.5092545,3.0179443-5.5761185
			s3.5177917-5.5761108,7.8173218-5.5761108s5.4626465,3.8347702,2.5846863,8.5217133l-2.6826324,4.3688507
			c-2.8779449,4.6869431-9.7326202,8.5217133-15.2326202,8.5217133h-2.4678345c-5.5,0-13.2588043,3.103241-17.241806,6.8961029
			l-1.2958069,1.2339478c-3.9829865,3.7928619-11.4835358,6.8961029-16.6678772,6.8961029s-9.4260864,4.5-9.4260864,10v1.1305389
			c0,5.5,4.241745,10,9.4260864,10s12.6080627-3.1819763,16.4971466-7.0710602l2.9980469-2.9980469
			c3.8890839-3.8890991,10.2530518-3.8890991,14.1421356,0l2.164093,2.1640778
			c3.8890839,3.8890839,11.5638275,7.0710602,17.0549927,7.0710602s9.9839325-4.5,9.9839325-10v-0.2965546
			c0-5.5000153,3.1819916-13.1819916,7.0710754-17.0710754l4.5701294-4.5701294
			c3.8890839-3.8890839,10.2530518-3.8890839,14.1421356,0l5.5618439,5.5618439
			c3.8890839,3.8890839,2.5710602,7.0710754-2.9289398,7.0710754h-9.0601044c-5.5,0-10,2.3666229-10,5.2591553
			s1.9202423,6.8109741,4.2671967,8.7076569s8.7671967,3.4485168,14.2671967,3.4485168h10.0526733c5.5,0,10,4.5,10,10v1.7532043
			c0,5.5,2.904068,12.904068,6.4534912,16.4534912s8.9806671,4.3186188,12.0694122,1.7093353
			s5.6159058-5.5133667,5.6159058-6.4534912c0-0.9401398-2.1348572-1.7093353-4.7441406-1.7093353
			s-4.7441711-1.0909882-4.7441711-2.4243927c0-1.3334198,3.1819763-5.606369,7.0710754-9.4954529l1.441864-1.4418793
			c3.8890991-3.8890839,10.2530518-3.8890839,14.1421509,0l1.441864,1.4418793
			c3.8890991,3.8890839,7.3396912,7.0710602,7.6679993,7.0710602c0.3283386,0,2.9033813,0,5.7223206,0
			c2.8189697,0,5.1253967,0,5.1253967,0"/>
	</g>
	
		<circle fill="none" stroke="#FFFFFF" stroke-width="10" stroke-linecap="round" stroke-linejoin="round" stroke-miterlimit="10" cx="184.9092712" cy="184.9999695" r="119.9999924"/>
	<g>
		<path fill="#FFFFFF" d="M156.5177002,116.6716537c0,1.2735519-1.0823059,2.3155518-2.4051208,2.3155518
			c-1.3228302,0-2.4051361,1.0419998-2.4051361,2.3155594c0,1.2735519,2.1646118,2.3155518,4.810257,2.3155518
			s4.810257-2.0839996,4.810257-4.6311111s-1.0823059-4.6311111-2.4051361-4.6311111
			C157.6000061,114.3560944,156.5177002,115.3980942,156.5177002,116.6716537z"/>
		<path fill="none" stroke="#FFFFFF" stroke-width="4" stroke-linecap="round" stroke-linejoin="round" stroke-miterlimit="10" d="
			M156.5177002,116.6716537c0,1.2735519-1.0823059,2.3155518-2.4051208,2.3155518
			c-1.3228302,0-2.4051361,1.0419998-2.4051361,2.3155594c0,1.2735519,2.1646118,2.3155518,4.810257,2.3155518
			s4.810257-2.0839996,4.810257-4.6311111s-1.0823059-4.6311111-2.4051361-4.6311111
			C157.6000061,114.3560944,156.5177002,115.3980942,156.5177002,116.6716537z"/>
	</g>
	<g>
		<path fill="#FFFFFF" d="M183.734024,305c-1.4351807-0.0345764-0.16745-3.8426514,2.8171844-8.4624023l7.7250824-11.9572754
			c2.9846191-4.6197205,2.2445984-11.5815125-1.6444855-15.4705811l-4.6875305-4.6875305
			c-3.8890839-3.8890991-11.5710602-7.0710754-17.0710602-7.0710754h-18.7862701c-5.5,0-13.147583-3.2160034-16.9946442-7.1466827
			l-20.5708923-21.0180969c-3.8470459-3.9306793-6.9946365-11.5841064-6.9946365-17.0075989
			c0-5.4235077,3.1819839-13.0429077,7.0710678-16.9319916l5.0856781-5.0856781
			c3.8890915-3.8890839,11.466217-7.0710754,16.8380737-7.0710754s12.9489899-3.1819763,16.8380737-7.0710602l3.9137115-3.9137115
			c3.8890839-3.8890839,10.2530365-3.8890839,14.1421356,0l3.5625,3.5625
			c3.8890839,3.8890991,11.5710754,7.0710754,17.0710754,7.0710754h35.172226c5.5,0,10,4.4052734,10,9.789505
			s3.3270416,12.8194885,7.3934174,16.5228119l0.9906311,0.9021606c4.0663757,3.7033234,9.0415955,6.7333069,11.0560455,6.7333069
			c2.0144348,0,5.3108215-1.7749634,7.3252563-3.9443665s4.9938354-3.9443665,6.6209106-3.9443665
			c1.6270447,0,2.958252,2.5990448,2.958252,5.7756805c0,3.1766205-3.1533203,8.9860535-7.0073853,12.9098358L244.2287292,250.21698
			c-3.8540802,3.9237976-7.0074158,11.6341553-7.0074158,17.1341553l0.0000153,15.743103
			c0,5.5-4.2398376,11.5078735-9.4218597,13.3508606c0,0-24.054306,8.5549011-42.7532043,8.5549011
			C183.734024,305,183.734024,305,183.734024,305z"/>
		<path fill="none" stroke="#FFFFFF" stroke-width="4" stroke-linecap="round" stroke-linejoin="round" stroke-miterlimit="10" d="
			M183.734024,305c-1.4351807-0.0345764-0.16745-3.8426514,2.8171844-8.4624023l7.7250824-11.9572754
			c2.9846191-4.6197205,2.2445984-11.5815125-1.6444855-15.4705811l-4.6875305-4.6875305
			c-3.8890839-3.8890991-11.5710602-7.0710754-17.0710602-7.0710754h-18.7862701c-5.5,0-13.147583-3.2160034-16.9946442-7.1466827
			l-20.5708923-21.0180969c-3.8470459-3.9306793-6.9946365-11.5841064-6.9946365-17.0075989
			c0-5.4235077,3.1819839-13.0429077,7.0710678-16.9319916l5.0856781-5.0856781
			c3.8890915-3.8890839,11.466217-7.0710754,16.8380737-7.0710754s12.9489899-3.1819763,16.8380737-7.0710602l3.9137115-3.9137115
			c3.8890839-3.8890839,10.2530365-3.8890839,14.1421356,0l3.5625,3.5625
			c3.8890839,3.8890991,11.5710754,7.0710754,17.0710754,7.0710754h35.172226c5.5,0,10,4.4052734,10,9.789505
			s3.3270416,12.8194885,7.3934174,16.5228119l0.9906311,0.9021606c4.0663757,3.7033234,9.0415955,6.7333069,11.0560455,6.7333069
			c2.0144348,0,5.3108215-1.7749634,7.3252563-3.9443665s4.9938354-3.9443665,6.6209106-3.9443665
			c1.6270447,0,2.958252,2.5990448,2.958252,5.7756805c0,3.1766205-3.1533203,8.9860535-7.0073853,12.9098358L244.2287292,250.21698
			c-3.8540802,3.9237976-7.0074158,11.6341553-7.0074158,17.1341553l0.0000153,15.743103
			c0,5.5-4.2398376,11.5078735-9.4218597,13.3508606c0,0-24.054306,8.5549011-42.7532043,8.5549011
			C183.734024,305,183.734024,305,183.734024,305z"/>
	</g>
</g>
<path opacity="0.6" fill="none" stroke="#FFFFFF" stroke-width="10" stroke-miterlimit="10" d="M238.561264,365H45
	c-22.0913906,0-40-17.9085999-40-40V45C5,22.9086094,22.9086094,5,45,5h280c22.0914001,0,40,17.9086094,40,40v193.561264"/>
<path fill="#FFFFFF" stroke="#FFFFFF" stroke-width="10" stroke-linecap="round" stroke-linejoin="round" stroke-miterlimit="10" d="
	M365,238.561264h-86.4387512c-22.0913696,0-39.9999847,17.9086151-39.9999847,39.9999847V365l64.2326202-64.2325745L365,238.561264z
	"/>
</svg>
