<?xml version="1.0" encoding="utf-8"?>
<!-- Generator: Adobe Illustrator 17.0.0, SVG Export Plug-In . SVG Version: 6.00 Build 0)  -->
<!DOCTYPE svg PUBLIC "-//W3C//DTD SVG 1.1//EN" "http://www.w3.org/Graphics/SVG/1.1/DTD/svg11.dtd">
<svg version="1.1" id="Слой_1" xmlns="http://www.w3.org/2000/svg" xmlns:xlink="http://www.w3.org/1999/xlink" x="0px" y="0px"
	 width="370px" height="370px" viewBox="0 0 370 370" enable-background="new 0 0 370 370" xml:space="preserve">
<path opacity="0.6" fill="none" stroke="#FFFFFF" stroke-width="10" stroke-miterlimit="10" d="M238.561264,365H45
	c-22.0913906,0-40-17.9085999-40-40V45C5,22.9086094,22.9086094,5,45,5h280c22.0914001,0,40,17.9086094,40,40v193.561264"/>
<line opacity="0.6" fill="none" stroke="#FFFFFF" stroke-width="10" stroke-miterlimit="10" x1="313.3333435" y1="185" x2="65.3333359" y2="185"/>
<path fill="#FFFFFF" stroke="#FFFFFF" stroke-width="10" stroke-linecap="round" stroke-linejoin="round" stroke-miterlimit="10" d="
	M365,238.561264h-86.4387512c-22.0913696,0-39.9999847,17.9086151-39.9999847,39.9999847V365l64.2326202-64.2325745L365,238.561264z
	"/>
<line opacity="0.6" fill="none" stroke="#FFFFFF" stroke-width="10" stroke-miterlimit="10" x1="65.3333359" y1="125" x2="313.3333435" y2="125"/>
<line opacity="0.6" fill="none" stroke="#FFFFFF" stroke-width="10" stroke-miterlimit="10" x1="65.3333359" y1="65" x2="313.3333435" y2="65"/>
<line opacity="0.6" fill="none" stroke="#FFFFFF" stroke-width="10" stroke-miterlimit="10" x1="65.3333359" y1="245" x2="278.5246887" y2="245"/>
<line opacity="0.6" fill="none" stroke="#FFFFFF" stroke-width="10" stroke-miterlimit="10" x1="65.3333359" y1="305" x2="256.5246887" y2="305"/>
</svg>
